<?xml version="1.0" encoding="UTF-8"?>
<!-- Generator: Adobe Illustrator 28.1.0, SVG Export Plug-In . SVG Version: 6.00 Build 0)  -->
<svg xmlns="http://www.w3.org/2000/svg" xmlns:xlink="http://www.w3.org/1999/xlink" version="1.1" id="titila-eventos-w" x="0px" y="0px" viewBox="0 0 459.3 215.4" style="enable-background:new 0 0 459.3 215.4;" xml:space="preserve">
<style type="text/css">
	.st0{fill:#FFFFFF;}
	.st1{enable-background:new    ;}
</style>
<g>
	<g>
		<polygon class="st0" points="76.1,32.6 76.1,46.3 76.1,132.3 61.1,132.3 61.1,46.3 31.6,46.3 31.6,32.6 61.1,32.6   "></polygon>
		<g>
			<rect x="114.5" y="58.5" class="st0" width="15" height="73.8"></rect>
		</g>
		<polygon class="st0" points="180.8,32.6 151.3,32.6 151.3,46.3 180.8,46.3 180.8,132.3 195.8,132.3 195.8,46.3 195.8,32.6   "></polygon>
		<rect x="234.2" y="58.5" class="st0" width="15" height="73.8"></rect>
		<polygon class="st0" points="427.7,111 399.1,32.6 399.1,32.6 399.1,32.6 384.1,32.6 384.1,32.6 384.1,32.6 347.8,132.3     362.9,132.3 391.6,53.2 412.7,111   "></polygon>
		<polygon class="st0" points="302.6,118.6 302.6,32.6 287.6,32.6 287.6,118.6 287.6,132.3 302.6,132.3 323.5,132.3 323.5,118.6       "></polygon>
		<circle class="st0" cx="121.8" cy="39.5" r="8.6"></circle>
		<circle class="st0" cx="241.5" cy="39.5" r="8.6"></circle>
		<circle class="st0" cx="392.3" cy="103.4" r="8.6"></circle>
	</g>
</g>
<g class="st1">
	<path class="st0" d="M154.4,158.2l-0.2,1.7h-11.7l-1.5,10h11.1l-0.3,1.7h-11.1l-1.5,10.6h15.7l-0.2,1.7h-17.5l3.7-25.8H154.4z"></path>
	<path class="st0" d="M171.2,167l-9.5,17.3h-0.6L157,167h1.7l3.2,13.8l7.6-13.8H171.2z"></path>
	<path class="st0" d="M185,180.7v1.8c-1.7,1.3-3.5,1.9-5.5,1.9c-2.3,0-4.2-0.7-5.6-2.2c-1.4-1.5-2.1-3.5-2.1-5.9   c0-2.7,0.8-4.9,2.4-6.8c1.6-1.8,3.5-2.7,5.7-2.7c1.9,0,3.4,0.6,4.5,1.9c1.1,1.3,1.7,3,1.7,5.3c0,0.4,0,0.8-0.1,1.3h-12.3   c-0.1,0.4-0.1,0.8-0.1,1.1c0,1.8,0.5,3.3,1.6,4.6c1.1,1.3,2.5,1.9,4.3,1.9C181.4,182.8,183.2,182.1,185,180.7z M173.9,173.7h10.4   c0.1-1.7-0.3-3-1.1-4s-2-1.5-3.4-1.5c-1.3,0-2.6,0.5-3.7,1.6C174.9,170.8,174.2,172.1,173.9,173.7z"></path>
	<path class="st0" d="M193,167l-0.4,2.8l0.1,0c2.2-2.1,4.4-3.2,6.7-3.2c1.3,0,2.3,0.5,3.2,1.4c0.8,0.9,1.2,2.1,1.2,3.4   c0,0.3,0,0.6-0.1,0.9L202,184h-1.7l1.6-11.4c0.1-0.4,0.1-0.7,0.1-1c0-1.1-0.3-1.9-0.8-2.5c-0.6-0.6-1.3-0.9-2.3-0.9   c-2,0-4.2,1.2-6.6,3.7l-1.7,12h-1.7l2.5-17H193z"></path>
	<path class="st0" d="M216.8,167l-0.2,1.3H212l-1.6,8.2c-0.3,2-0.5,3.2-0.5,3.6c0,1,0.3,1.7,0.8,2.2c0.5,0.5,1.2,0.8,2,0.8   c1.1,0,2.2-0.5,3.3-1.5v1.6c-1.2,0.8-2.4,1.2-3.6,1.2c-1.3,0-2.3-0.4-3.1-1.3c-0.8-0.8-1.2-1.9-1.2-3.1c0-0.9,0.2-2.2,0.5-3.8   l1.7-7.9h-3.5l0.2-1.3h3.4l0.8-3.9h1.7l-0.8,3.9H216.8z"></path>
	<path class="st0" d="M226.2,166.7c1.9,0,3.4,0.6,4.5,1.9c1.1,1.3,1.7,3,1.7,5.2c0,3.2-0.8,5.7-2.5,7.6c-1.6,1.9-3.6,2.9-5.9,2.9   c-1.8,0-3.2-0.6-4.3-1.9c-1.1-1.3-1.7-3-1.7-5.2c0-3.1,0.8-5.6,2.3-7.6C221.8,167.7,223.8,166.7,226.2,166.7z M223.9,182.8   c1.8,0,3.4-0.9,4.7-2.6c1.3-1.7,1.9-3.9,1.9-6.4c0-1.7-0.4-3.1-1.2-4.1c-0.8-1-1.9-1.5-3.2-1.5c-1.9,0-3.4,0.9-4.6,2.6   c-1.2,1.7-1.7,3.9-1.7,6.4c0,1.7,0.4,3.1,1.1,4.1C221.6,182.3,222.6,182.8,223.9,182.8z"></path>
	<path class="st0" d="M246.9,168.3v1.8c-2.1-1.3-4-1.9-5.7-1.9c-1,0-1.8,0.2-2.5,0.7c-0.7,0.5-1.1,1-1.1,1.7c0,0.5,0.2,0.9,0.6,1.4   c0.4,0.5,1.5,1.3,3.4,2.4c1.8,1.1,3.1,2.1,3.6,2.9c0.6,0.8,0.9,1.7,0.9,2.5c0,1.2-0.6,2.3-1.7,3.1c-1.1,0.9-2.5,1.3-4.1,1.3   c-2.1,0-4.1-0.7-5.9-2.2l0.5-1.8c1.6,1.6,3.4,2.5,5.4,2.5c1.1,0,2-0.3,2.7-0.8c0.7-0.5,1.1-1.2,1.1-1.9c0-0.5-0.2-1.1-0.6-1.6   c-0.4-0.6-1.5-1.4-3.4-2.6s-3-2.1-3.5-2.8c-0.5-0.7-0.8-1.4-0.8-2.2c0-1.2,0.5-2.2,1.6-3s2.4-1.2,4-1.2   C243.4,166.7,245.2,167.2,246.9,168.3z"></path>
	<path class="st0" d="M265.8,158.2L262,184h-1.8l3.7-25.8H265.8z"></path>
	<path class="st0" d="M271.6,167l-0.4,2.8l0.1,0c2.2-2.1,4.4-3.2,6.7-3.2c1.3,0,2.3,0.5,3.2,1.4c0.8,0.9,1.2,2.1,1.2,3.4   c0,0.3,0,0.6-0.1,0.9l-1.7,11.7h-1.7l1.6-11.4c0.1-0.4,0.1-0.7,0.1-1c0-1.1-0.3-1.9-0.8-2.5c-0.6-0.6-1.3-0.9-2.3-0.9   c-2,0-4.2,1.2-6.6,3.7l-1.7,12h-1.7l2.5-17H271.6z"></path>
	<path class="st0" d="M295.4,167l-0.2,1.3h-4.6l-1.6,8.2c-0.3,2-0.5,3.2-0.5,3.6c0,1,0.3,1.7,0.8,2.2c0.5,0.5,1.2,0.8,2,0.8   c1.1,0,2.2-0.5,3.3-1.5v1.6c-1.2,0.8-2.4,1.2-3.6,1.2c-1.3,0-2.3-0.4-3.1-1.3s-1.2-1.9-1.2-3.1c0-0.9,0.2-2.2,0.5-3.8l1.7-7.9h-3.5   l0.2-1.3h3.4l0.8-3.9h1.7l-0.8,3.9H295.4z"></path>
	<path class="st0" d="M309.9,180.7v1.8c-1.7,1.3-3.5,1.9-5.5,1.9c-2.3,0-4.2-0.7-5.6-2.2c-1.4-1.5-2.1-3.5-2.1-5.9   c0-2.7,0.8-4.9,2.4-6.8c1.6-1.8,3.5-2.7,5.7-2.7c1.9,0,3.4,0.6,4.5,1.9c1.1,1.3,1.7,3,1.7,5.3c0,0.4,0,0.8-0.1,1.3h-12.3   c-0.1,0.4-0.1,0.8-0.1,1.1c0,1.8,0.5,3.3,1.6,4.6c1.1,1.3,2.5,1.9,4.3,1.9C306.2,182.8,308.1,182.1,309.9,180.7z M298.8,173.7h10.4   c0.1-1.7-0.3-3-1.1-4s-2-1.5-3.4-1.5c-1.3,0-2.6,0.5-3.7,1.6C299.8,170.8,299.1,172.1,298.8,173.7z"></path>
	<path class="st0" d="M329.7,166.7l-0.2,1.3h-4.9v0.1c1.7,1,2.6,2.5,2.6,4.6c0,1.4-0.4,2.6-1.1,3.7c-0.8,1.1-1.6,1.8-2.6,2.2   c-0.9,0.4-2.2,0.7-3.8,0.9c-1.6,0.2-2.6,0.5-3.1,0.8c-0.5,0.3-0.7,0.6-0.7,1c0,0.4,0.2,0.7,0.6,0.9c0.4,0.2,1.8,0.6,4.1,1.1   s3.9,1.2,4.8,1.9c0.9,0.7,1.3,1.6,1.3,2.7c0,1.4-0.7,2.5-2,3.5c-1.4,0.9-3.3,1.4-5.8,1.4c-2.2,0-4-0.4-5.2-1.2   c-1.2-0.8-1.8-1.8-1.8-3c0-2,2-3.5,6-4.4V184c-2.4-0.5-3.6-1.3-3.6-2.6c0-1.3,1.2-2.1,3.6-2.5v-0.1c-2.5-0.9-3.7-2.7-3.7-5.4   c0-1.8,0.7-3.4,2.1-4.7c1.4-1.3,3.1-2,5.1-2H329.7z M325.1,188c0-1.1-0.8-1.9-2.5-2.4c-1.7-0.5-2.7-0.8-3-0.8   c-0.9,0-2.2,0.4-3.7,1.1s-2.4,1.7-2.4,2.9c0,0.8,0.5,1.5,1.4,2c0.9,0.5,2.2,0.7,3.8,0.7c2.1,0,3.6-0.3,4.7-1   C324.5,189.9,325.1,189,325.1,188z M321,168.1c-1.4,0-2.6,0.5-3.7,1.6s-1.6,2.3-1.6,3.8c0,1.2,0.4,2.3,1.2,3.2   c0.8,0.9,1.8,1.3,3.1,1.3c1.7,0,3.1-0.6,4-1.8c0.9-1.2,1.4-2.5,1.4-3.8c0-1.2-0.5-2.3-1.4-3.1S322.1,168.1,321,168.1z"></path>
	<path class="st0" d="M334.2,167l-0.7,4.7l0.1,0.1c1.4-1.9,2.5-3.2,3.3-4c0.9-0.7,1.8-1.1,2.8-1.1c0.6,0,1.2,0.1,1.7,0.3v1.7   c-0.7-0.3-1.3-0.5-1.8-0.5c-1.2,0-2.6,0.9-4.1,2.7c-1.5,1.8-2.3,2.8-2.4,3l-1.5,10.1H330l2.5-17H334.2z"></path>
	<path class="st0" d="M355.9,167l-2.5,17h-1.7l0.3-2c-1.9,1.6-3.9,2.3-6,2.3c-1.8,0-3.2-0.6-4.4-1.9c-1.2-1.3-1.7-2.9-1.7-4.9   c0-3,1.1-5.5,3.4-7.6c2.3-2.1,5.3-3.2,9-3.2C353.7,166.7,354.9,166.8,355.9,167z M352.3,180.1l1.7-11.9c-0.6-0.1-1.3-0.2-2.1-0.2   c-2.8,0-5.2,0.9-7.2,2.8c-2,1.9-3,4.2-3,7c0,1.6,0.4,2.8,1.2,3.8c0.8,0.9,1.9,1.4,3.3,1.4C348.2,183,350.2,182,352.3,180.1z"></path>
	<path class="st0" d="M363.9,158.2l-3.7,25.8h-1.7l3.7-25.8H363.9z"></path>
	<path class="st0" d="M378.9,180.7v1.8c-1.7,1.3-3.5,1.9-5.5,1.9c-2.3,0-4.2-0.7-5.6-2.2c-1.4-1.5-2.1-3.5-2.1-5.9   c0-2.7,0.8-4.9,2.4-6.8c1.6-1.8,3.5-2.7,5.7-2.7c1.9,0,3.4,0.6,4.5,1.9c1.1,1.3,1.7,3,1.7,5.3c0,0.4,0,0.8-0.1,1.3h-12.3   c-0.1,0.4-0.1,0.8-0.1,1.1c0,1.8,0.5,3.3,1.6,4.6c1.1,1.3,2.5,1.9,4.3,1.9C375.3,182.8,377.1,182.1,378.9,180.7z M367.9,173.7h10.4   c0.1-1.7-0.3-3-1.1-4s-2-1.5-3.4-1.5c-1.3,0-2.6,0.5-3.7,1.6C368.8,170.8,368.1,172.1,367.9,173.7z"></path>
	<path class="st0" d="M394.6,168.3v1.8c-2.1-1.3-4-1.9-5.7-1.9c-1,0-1.8,0.2-2.5,0.7c-0.7,0.5-1.1,1-1.1,1.7c0,0.5,0.2,0.9,0.6,1.4   c0.4,0.5,1.5,1.3,3.4,2.4c1.8,1.1,3.1,2.1,3.6,2.9c0.6,0.8,0.9,1.7,0.9,2.5c0,1.2-0.6,2.3-1.7,3.1s-2.5,1.3-4.1,1.3   c-2.1,0-4.1-0.7-5.9-2.2l0.5-1.8c1.6,1.6,3.4,2.5,5.4,2.5c1.1,0,2-0.3,2.7-0.8c0.7-0.5,1.1-1.2,1.1-1.9c0-0.5-0.2-1.1-0.6-1.6   c-0.4-0.6-1.6-1.4-3.4-2.6c-1.8-1.1-3-2.1-3.5-2.8c-0.5-0.7-0.8-1.4-0.8-2.2c0-1.2,0.5-2.2,1.6-3c1.1-0.8,2.4-1.2,4-1.2   C391.1,166.7,392.8,167.2,394.6,168.3z"></path>
</g>
</svg>
